<?xml version="1.0" encoding="UTF-8"?>
<svg width="700pt" height="700pt" version="1.1" viewBox="0 0 700 700" xmlns="http://www.w3.org/2000/svg">
 <g>
  <path d="m350 46.668c-61.883 0-121.23 24.582-164.99 68.34-43.758 43.758-68.34 103.11-68.34 164.99s24.582 121.23 68.34 164.99c43.758 43.758 103.11 68.34 164.99 68.34s121.23-24.582 164.99-68.34c43.758-43.758 68.34-103.11 68.34-164.99-0.097656-61.855-24.711-121.14-68.449-164.88-43.738-43.738-103.03-68.352-164.88-68.449zm106.17 252.7-140 93.332c-4.7031 3.0977-10.363 4.3906-15.945 3.6406-5.5781-0.75-10.695-3.4922-14.414-7.7227-3.7148-4.2266-5.7812-9.6562-5.8086-15.285v-186.66c-0.03125-4.2305 1.1094-8.3867 3.293-12.012 2.1797-3.6211 5.3203-6.5703 9.0742-8.5234 3.6758-2.0547 7.8594-3.0352 12.066-2.832 4.207 0.20703 8.2734 1.5938 11.734 4l140 93.332c6.5547 4.2617 10.508 11.551 10.508 19.367s-3.9531 15.105-10.508 19.367z"/>
  <path d="m326.67 329.7 74.664-49.699-74.664-49.699z"/>
 </g>
</svg>
